<?xml version="1.0" encoding="utf-8"?>
<!-- Generator: Adobe Illustrator 23.0.3, SVG Export Plug-In . SVG Version: 6.00 Build 0)  -->
<svg version="1.1" id="Layer_1" xmlns="http://www.w3.org/2000/svg" xmlns:xlink="http://www.w3.org/1999/xlink" x="0px" y="0px"
	 viewBox="0 0 92.1 130.7" style="enable-background:new 0 0 92.1 130.7;" xml:space="preserve">
<style type="text/css">
	.st0{fill:#007EC6;}
</style>
<g>
	<path class="st0" d="M44.4,8.1c19.2,0,34.8,15.6,34.8,34.9c0,4.9-1,9.8-3,14.2c-8.7,19.1-25.4,39.2-30.3,44.9
		c-0.7,0.8-1.9,0.9-2.8,0.2c-0.1-0.1-0.1-0.1-0.2-0.2C38,96.4,21.3,76.3,12.6,57.2c-2-4.5-3-9.3-3-14.2c0-19.2,15.6-34.8,34.8-34.9
		 M44.5,61.1c10,0,18.1-8.1,18.1-18.1c0-10-8.1-18.1-18.1-18.1c-10,0-18.1,8.1-18.1,18.1c0,0,0,0,0,0C26.4,53,34.5,61.1,44.5,61.1
		 M44.5,0c-23.7,0-43,19.3-43,43l0,0c0,6.1,1.3,12.1,3.8,17.6c9.2,20,26.5,40.9,31.6,46.8c3.6,4.2,10,4.7,14.2,1.1
		c0.4-0.3,0.7-0.7,1.1-1.1c5.1-5.9,22.4-26.8,31.6-46.8c2.5-5.5,3.8-11.5,3.8-17.6C87.5,19.3,68.2,0,44.5,0L44.5,0z M44.5,53
		c-5.5,0-10-4.4-10.1-9.9c0-5.5,4.4-10,9.9-10.1s10,4.4,10.1,9.9c0,2.7-1,5.2-2.9,7.1C49.6,51.9,47.1,52.9,44.5,53z"/>
	<path class="st0" d="M91.9,128.1L77.2,87.6c-0.5-1.3-1.8-2.2-3.2-2.2h-9.7v1H74c1,0.1,1.8,0.6,2.2,1.5l-15.3,6.5l0.4,0.9l15.2-6.5
		l2.2,6l-7.3,3.1c-0.2,0.1-0.3,0.3-0.3,0.5c0,0.2,0.1,0.4,0.3,0.5l10.5,4.6l3,8.1l-22.3-9.7c-0.1-0.1-0.3-0.1-0.4,0l-23.4,10.2
		c-0.2,0.1-0.3,0.3-0.3,0.5c0,0.2,0.1,0.4,0.3,0.5l38.6,16.7H61.2l-31.5-13.6c-0.1,0-0.3,0-0.4,0L1.2,128.2l3-8.3l11.4-4.9
		c0.2-0.1,0.3-0.3,0.3-0.5c0-0.2-0.1-0.4-0.3-0.5l-8.1-3.5l2.2-6.1l14.8,6.5c0.1,0,0.1,0,0.2,0c0.1,0,0.1,0,0.2,0l11.3-4.7l-0.4-0.9
		L24.7,110L10,103.5l4.6-13L28,96.3l0.4-0.9L15,89.5l0.6-1.6c0.4-0.9,1.2-1.5,2.2-1.5h6.9v-1h-6.9c-1.4,0.1-2.6,0.9-3.2,2.2
		L0.2,128.2c-0.4,0.9,0,2,0.9,2.4c0.3,0.1,0.6,0.2,0.9,0.1h88.2c1,0.1,1.9-0.7,1.9-1.7C92.1,128.7,92,128.4,91.9,128.1L91.9,128.1z
		 M14.1,114.5l-9.5,4.1l2.6-7.1L14.1,114.5z M1.9,129.7c-0.3,0-0.6-0.1-0.8-0.3l0,0l28.4-12.3l29.1,12.6H1.9z M72.8,98.4l6.2-2.6
		l2.3,6.4L72.8,98.4z M90.8,129.4c-0.2,0.2-0.5,0.4-0.8,0.3H79.8l-39.6-17.2l22.2-9.6l22.9,9.9l5.7,15.6
		C91,128.8,91,129.1,90.8,129.4L90.8,129.4z"/>
</g>
</svg>
