<?xml version="1.0" encoding="utf-8"?>
<!-- Generator: Adobe Illustrator 23.0.3, SVG Export Plug-In . SVG Version: 6.00 Build 0)  -->
<svg version="1.1" id="Layer_1" xmlns="http://www.w3.org/2000/svg" xmlns:xlink="http://www.w3.org/1999/xlink" x="0px" y="0px"
	 viewBox="0 0 123.8 120.9" style="enable-background:new 0 0 123.8 120.9;" xml:space="preserve">
<style type="text/css">
	.st0{fill:#007EC6;}
</style>
<g>
	<path class="st0" d="M123.7,100.6l-2.3-26.5c-0.7-8-7.7-13.9-15.7-13.2l-16.1,1.4V14.5c0-8-6.5-14.5-14.5-14.5H14.5
		C6.5,0,0,6.5,0,14.5v85.7c0,8,6.5,14.5,14.5,14.5h31c0.7,1.1,1.6,2,2.6,2.8c2.6,2.2,5.9,3.4,9.3,3.4c0.4,0,0.9,0,1.3,0l51.9-4.5
		C118.5,115.6,124.4,108.6,123.7,100.6C123.7,100.6,123.7,100.6,123.7,100.6z M44,70.6c-2.5,2.9-3.7,6.7-3.3,10.6l2.1,24.4H14.5
		c-3,0-5.5-2.5-5.5-5.5V14.5c0-3,2.5-5.5,5.5-5.5h60.6c3,0,5.5,2.5,5.5,5.5v48.7l-26.8,2.3C50,65.8,46.4,67.7,44,70.6L44,70.6z
		 M109.7,107.3l-51.9,4.5c-3,0.3-5.7-2-6-5c0,0,0,0,0,0l-2.3-26.5c-0.2-3,2-5.7,5-5.9l51.9-4.5c0.2,0,0.3,0,0.5,0
		c2.8,0,5.2,2.2,5.5,5l2.3,26.5C115,104.4,112.8,107.1,109.7,107.3L109.7,107.3z"/>
	<path class="st0" d="M62.1,35c1.1-0.3,2-1.2,2.2-2.3c-0.7-0.2-1.3-0.2-2,0c0.9-0.5,1.5-1.5,1.5-2.6c-0.8,0-1.5,0.1-2.2,0.5
		c1.4-0.7,2-2.5,1.2-3.9c-0.5,0.3-2.6,2.4-2.9,2.7c0.8-0.9,1.5-1.9,1.9-3c0.4-0.9,0.4-2.6-0.8-3.1c-1,2-2.2,3.9-3.5,5.7
		c-0.1-0.1-0.2-0.3-0.3-0.3c-0.3,0.9-0.9,1.8-1.7,2.4c-0.1-0.2-0.1-0.3-0.2-0.4c-0.7,1.1-2.6,2.5-3.2,3.4c-0.5,0.6-0.4,1.4,0.1,1.9
		c0,0,0,0,0.1,0c0.5,0.3,0.6,0.9,0.3,1.4c0,0,0,0,0,0c-0.5,0.8-1.5,1-2.3,0.5c-0.2-0.1-0.3-0.2-0.4-0.4c0.7-0.1,1.1-0.8,0.9-1.4
		c0-0.2-0.1-0.4-0.3-0.6c-0.3,0.5-0.9,0.7-1.4,0.5c-0.3-0.1-0.6-0.3-0.8-0.5c0.8,0.3,1.5-0.2,1.4-1c-0.4,0.3-1.1,0.3-1.4-0.1
		c-0.4-0.5-0.6-1.2-0.4-1.8c0.2-0.9,0.7-1.6,1.4-2.2c0.1,0.1,0.3,0.2,0.4,0.2c0.2-0.1,0.4-0.1,0.5-0.2c0.4-0.1,0.9-0.1,1.3,0.2
		c0.4,0.2,0.6,0.6,0.5,1c0.9-0.5,0.6-1.3-0.6-1.6c0.6,0.1,1.1,0.4,1.6,0.8c0.4,0.3,0.9,0.3,1.4,0.1c0.7-0.3,0.8-1.1,0.6-1.3
		c-0.1,0.3-0.3,0.6-0.7,0.6c-0.6,0-1.1-0.1-1.6-0.4c-0.4-0.2-0.9-0.3-1.4-0.3c0.8-0.5,1.8-0.4,2.4,0.3c0.3-0.2,0.4-0.5,0.5-0.8
		c0.2-1.1-0.7-1.7-1.6-1.7c0-0.2-0.1-0.3-0.2-0.3c-0.1,0-0.1,0-0.2,0c0-0.1,0-0.2-0.1-0.3h0.1c0.9,0,1.7-0.3,2.3-0.9
		c0.9-0.9-0.5-2.1,0-3c0.5,0.3,1,0.5,1.5,0.6c0.1,0.2,0.1,0.4,0.1,0.6c0.2,1-0.8,1.2-0.5,2.3c0.1,0.5,0.5,0.7,0.6,1.2
		c0,0.3-0.1,0.6-0.3,0.8c0.6,0,1-0.4,1.1-0.9c0-0.1,0-0.3-0.1-0.4c-0.1-0.3-0.4-0.5-0.4-0.8c0.4,0.6,0.8,0.5,1.4,0.3
		c0.3-0.1,0.3,0.3,0.1,0.7c0.3-0.2,0.5-0.5,0.6-0.9c0-0.3-0.2-0.6-0.5-0.6c-0.1,0-0.1,0-0.2,0c-0.2,0-0.6,0.3-0.6-0.1
		c-0.1-0.7,1-0.6,0.7-1.7c-0.1-0.5-0.7-0.8-1.6-0.9c-0.2-0.1-0.3-0.3-0.4-0.5c-0.5-0.8-1-1-1.3-0.9s-0.6,0.3-0.9,0.5
		c-0.2,0.1-0.5,0.2-0.7,0.4c-0.4,0.5,0,1.3,0.2,1.7c0.3,0.4,0.4,0.9,0.3,1.4c-0.2,0.6-1.1,0.9-1.7,1h-0.1V26
		c0.2-0.3,0.3-0.6,0.4-0.9c0.4-1-0.2-1.4-1-1.6c-0.1-0.1-0.2-0.1-0.3,0l0,0v0.2h-0.1v-0.2l0,0c0.1-0.1,0.1-0.2,0.1-0.3
		c0-0.1,0-0.2-0.1-0.3h0.1l0,0c0-0.1-0.1-0.1-0.2-0.2c0,0,0-0.1,0-0.1c0,0,0,0,0.1,0.1s0.1,0.1,0.1,0.1h0.1v-0.9l-0.1,0.1L51.2,22
		c0,0-0.1,0-0.1,0.1s0-0.1,0-0.1c0.1,0,0.1-0.1,0.2-0.1v-0.1h-0.9v0.1c0.1,0,0.1,0.1,0.2,0.1c0,0,0,0.1,0.1,0.1c0,0-0.1,0-0.1-0.1
		s-0.1-0.1-0.2-0.1v-0.1v0.9l0,0c0.1-0.1,0.1-0.1,0.2-0.1l0.1-0.1l-0.1,0.1l-0.2,0.2l0,0h0.1c-0.1,0.1-0.1,0.2-0.1,0.3
		c0,0.1,0,0.2,0.1,0.3l0,0v0.2h-0.1v-0.2l0,0c-0.1-0.1-0.2-0.1-0.3,0c-0.8,0.2-1.4,0.6-1,1.6c0.1,0.3,0.3,0.6,0.4,0.9v0.1
		c-1-0.4-2-1-2.8-1.8c0,0-0.1-0.1-0.1-0.1v-0.6c0.3-0.5,0.6-1.1,0.8-1.7c0.5-1.4-0.3-2-1.5-2.3c-0.1-0.1-0.3-0.1-0.5-0.1v0.2H45
		v-0.3h-0.1c0.2-0.1,0.3-0.3,0.3-0.5c0-0.2-0.1-0.3-0.2-0.4h0.2c-0.2-0.1-0.3-0.3-0.4-0.5c0.2,0.1,0.4,0.2,0.5,0.4v-1.2
		c-0.1,0.1-0.3,0.3-0.5,0.3c0.1-0.2,0.2-0.3,0.4-0.5H44c0.1,0.1,0.3,0.3,0.3,0.5c-0.2-0.1-0.3-0.2-0.5-0.3v1.2
		c0.1-0.1,0.3-0.3,0.5-0.4c-0.1,0.2-0.2,0.4-0.3,0.5h0.2C44.1,18.7,44,18.9,44,19c0,0.2,0.1,0.4,0.3,0.5h-0.4v0.3h-0.3v-0.2
		c-0.2-0.1-0.4,0-0.5,0.1c-1.2,0.2-2,0.9-1.5,2.3c0.2,0.6,0.4,1.1,0.8,1.7v0.6c0,0-0.1,0.1-0.1,0.1c-0.8,0.8-1.7,1.4-2.8,1.8V26
		c0.2-0.3,0.3-0.6,0.4-0.9c0.4-1-0.2-1.4-1-1.6c-0.1-0.1-0.2-0.1-0.3,0l0,0v0.2h-0.1v-0.2l0,0c0.1-0.1,0.1-0.2,0.1-0.3
		c0-0.1,0-0.2-0.1-0.3h0.2c-0.1-0.1-0.2-0.2-0.3-0.3c0.1,0.1,0.2,0.2,0.3,0.3v-0.9c-0.1,0.1-0.2,0.2-0.3,0.2
		c0.1-0.1,0.2-0.2,0.3-0.3h-0.9c0.1,0.1,0.2,0.2,0.2,0.3c-0.1-0.1-0.2-0.1-0.3-0.2v0.9c0.1-0.1,0.2-0.2,0.3-0.3
		c-0.1,0.1-0.1,0.2-0.2,0.3h0.1c-0.1,0.1-0.1,0.2-0.1,0.3c0,0.1,0,0.2,0.1,0.3l0,0v0.2h-0.1v-0.2l0,0c-0.1-0.1-0.2-0.1-0.3,0
		c-0.8,0.2-1.4,0.6-1,1.6c0.1,0.3,0.3,0.6,0.4,0.9v0.3h-0.1c-0.6-0.1-1.5-0.5-1.7-1c-0.1-0.5,0.1-1,0.3-1.4c0.2-0.5,0.6-1.2,0.2-1.7
		c-0.2-0.2-0.4-0.3-0.7-0.4c-0.3-0.2-0.5-0.3-0.9-0.5s-0.8,0-1.3,0.9c-0.1,0.2-0.3,0.3-0.4,0.5c-0.9,0.1-1.5,0.4-1.6,0.9
		c-0.2,1,0.8,1,0.8,1.7c0,0.4-0.4,0.1-0.6,0.1c-0.3-0.1-0.6,0.1-0.7,0.4c0,0.1,0,0.1,0,0.2c0,0.4,0.2,0.7,0.6,0.9
		c-0.2-0.3-0.2-0.7,0.2-0.7c0.7,0.2,1,0.2,1.4-0.3c0,0.3-0.3,0.6-0.4,0.8c-0.2,0.5,0.1,1.1,0.6,1.3c0.1,0,0.3,0.1,0.4,0.1
		c-0.2-0.2-0.3-0.5-0.3-0.8c0.1-0.6,0.5-0.8,0.6-1.2c0.3-1.1-0.8-1.3-0.5-2.3c0-0.2,0.1-0.4,0.1-0.6c0.5-0.1,1-0.3,1.5-0.6
		c0.5,0.9-0.9,2.1,0,3c0.7,0.6,1.5,0.9,2.3,0.9h0.1c-0.1,0.1-0.1,0.2-0.1,0.3c-0.1-0.1-0.3,0-0.4,0.1c0,0.1,0,0.1,0,0.2
		c-1,0-1.9,0.6-1.6,1.7c0,0.3,0.2,0.6,0.5,0.8c0.6-0.6,1.6-0.7,2.4-0.3c-0.5,0-1,0.1-1.4,0.3c-0.5,0.3-1,0.4-1.6,0.4
		c-0.3,0-0.6-0.3-0.7-0.6c-0.2,0.2,0,1,0.6,1.3c0.4,0.2,1,0.2,1.4-0.1c0.4-0.4,1-0.7,1.6-0.8c-1.1,0.3-1.4,1.1-0.6,1.6
		c-0.1-0.4,0.1-0.8,0.5-1c0.4-0.2,0.8-0.3,1.3-0.2c0.2,0.1,0.4,0.2,0.6,0.2c0.2,0,0.3-0.1,0.4-0.2c0.7,0.6,1.1,1.4,1.4,2.2
		c0.2,0.6,0.1,1.3-0.4,1.8c-0.4,0.4-1,0.5-1.4,0.1c-0.1,0.5,0.3,1,0.9,1.1c0.2,0,0.4,0,0.5-0.1c-0.2,0.2-0.5,0.4-0.8,0.5
		c-0.5,0.2-1.1,0-1.4-0.5c-0.4,0.5-0.4,1.3,0.1,1.7c0.2,0.1,0.4,0.2,0.6,0.3c-0.5,0.7-1.6,0.9-2.3,0.4c-0.2-0.1-0.3-0.3-0.4-0.4
		c-0.4-0.6,0.1-1.1,0.3-1.4c0.6-0.4,0.7-1.2,0.3-1.8c0,0-0.1-0.1-0.1-0.1c-0.6-0.9-2.5-2.4-3.2-3.4c-0.1,0.1-0.2,0.3-0.2,0.4
		c-0.8-0.6-1.3-1.5-1.7-2.4c-0.1,0.1-0.3,0.2-0.3,0.3c-1.3-1.8-2.5-3.7-3.5-5.7c-1.1,0.5-1.1,2.2-0.8,3.1c0.4,1.1,1.1,2.1,1.9,3
		c-0.3-0.3-2.5-2.4-2.9-2.7c-0.7,1.4-0.2,3.2,1.2,3.9c-0.7-0.3-1.4-0.5-2.2-0.5c0,1.1,0.6,2.1,1.5,2.6c-0.7-0.2-1.3-0.2-2,0
		c0.3,1.1,1.1,2,2.2,2.3c-0.7-0.1-1.4,0-2.1,0.3c0.1,0.9,1.1,1.7,2.3,1.9c-0.7,0-1.4,0.4-1.9,0.9c0.5,0.7,1.3,1,2.1,1
		c-0.3,0.1-0.5,0.3-0.7,0.5c0,0-0.1-0.1-0.1-0.1c0,0,0,0.1,0,0.1l0,0c-0.1,0.1-0.1,0.1-0.2,0.2c-0.1,0.1-0.2,0.3-0.2,0.4
		c0,0,0.1,0,0.1,0.1c0,0.1,0,0.2,0.1,0.3c0,0.1-0.1,0.1-0.1,0.2l-0.6-0.2c-0.1,0.4,0.1,0.9,0.3,1.2c0.2,0.2,0.4,0.2,0.4,0.3l0.6,0.4
		c0.1,0.2,0.3,0.3,0.5,0.2c0,0,0,0,0,0v0.1c0,0.2,0.2,0.5,0.4,0.5c0,0.2,0,0.3,0.3,0.4l2.4,5.8c-0.1,0.2,0,0.5,0.2,0.6
		c-0.1,0.1-0.1,0.2-0.1,0.3c0.1-0.1,0.2-0.1,0.3,0.1s-0.2,0.6,0.2,0.9c0,0.3,0.1,0.5,0.4,0.6c0,0.1,0.1,0.6,0.1,0.8
		c-0.2,0.2-0.6,0.6-0.5,1c0,0.2,0.2,0.4,0.4,0.4c-0.1,0.3,0.1,0.7,0.4,0.8c0.1,0,0.1,0,0.2,0c0,0.3,0.3,0.5,0.6,0.5
		c0.2,0.1,0.4,0.3,0.6,0.4c-0.2,0.3-0.1,0.6,0.3,0.7c0.1,0.2,0.2,0.3,0.4,0.4c0.1,0.2,0.3,0.3,0.5,0.2c0.2-0.1,0.2-0.4,0.1-0.5
		c0.1-0.1,0.1-0.3,0-0.5c0.1-0.2,0-0.5-0.2-0.7c0-0.2,0-0.3-0.1-0.5c0.3-0.2,0.8-0.5,0.9-0.6c0.8-0.6,1.8-1,2.8-1.2c0.3,0,0.7,0,1,0
		c0.4,0,1,0.2,1.3-0.1c0.1-0.1,0.2-0.2,0.1-0.3c0-0.3-0.3-0.5-0.4-0.7c0-0.1-0.1-0.2-0.1-0.3c0.2,0.1,0.5,0,0.8-0.1
		c0.4-0.2,0.6-0.5,0.6-0.9c-0.3,0.2-1.2,0.4-1.3-0.5s0.6-1.4,1.6-1.1c0.7,0.2,1.8,1.7,0.8,2.4c-0.5,0.3-1.2,0.6-1.1,1.5
		c0.3-0.4,0.8-0.6,1.3-0.5c-0.7,0.4-1.5,0.8-2.2,1.1c-0.7,0.4-1.3,1.1-1.8,1.1s-0.7-0.5-0.3-0.9c-0.5-0.1-1,0.2-1.2,0.7
		c-0.2,0.5-0.1,1,0.3,1.3c-0.6,0.3-0.9,0.9-0.7,1.6c0.2,0.6,0.8,0.6,0.6,1.4c0.3-0.1,0.6-0.3,0.7-0.7c0-0.2,0.1-0.4,0.2-0.6
		c0,0.6,0.3,1.2,0.9,1.5c0.6,0.3,1.2,0.2,1.7-0.3c0.3,0.7,1,1.1,1.7,1.1c0.4,0,0.7-0.1,1-0.3c0.2,0.5,0.6,0.9,1.1,1.2
		c0.5-0.2,0.9-0.6,1.1-1.2c0.3,0.2,0.6,0.3,1,0.3c0.8,0,1.4-0.4,1.7-1.1c0.4,0.4,1.1,0.5,1.7,0.3c0.6-0.3,0.9-0.9,0.9-1.5
		c0.1,0.2,0.2,0.4,0.2,0.6c0.1,0.3,0.3,0.6,0.7,0.7c-0.2-0.8,0.4-0.8,0.6-1.4c0.2-0.6-0.1-1.3-0.7-1.6c0.4-0.3,0.6-0.8,0.3-1.3
		c-0.2-0.5-0.7-0.7-1.1-0.7c0.4,0.4,0.2,0.9-0.3,0.9s-1.1-0.7-1.8-1.1c-0.8-0.3-1.5-0.7-2.2-1.1c0.5-0.1,1,0.1,1.3,0.5
		c0.1-0.8-0.6-1.1-1.1-1.5c-1-0.7,0.1-2.2,0.8-2.4c1-0.3,1.7,0.4,1.6,1.1s-1,0.6-1.3,0.5c0,0.4,0.3,0.7,0.6,0.9c0.3,0.1,0.7,0.1,1,0
		c0,0.1,0,0.2,0,0.2c-0.1,0.8-0.5,0.8-0.3,1.1s1.5,0.2,1.8,0.3c0.6,0.1,1.1,0.3,1.7,0.4c0.7,0.1,1.3,0.2,1.9,0.4
		c0.4,0.2,0.8,0.5,1.2,0.6c0.6,0.1,0.5,0.3,0.8,0.3s0.4-0.3,0.9-0.4s0.6,0,0.9-0.1s0.3-0.3,0.5-0.4s0.5-0.1,0.8-0.3
		c0.1-0.1,0.2-0.3,0.1-0.4c0.5-0.3,0.8-0.8,1-1.3c0.1,0,0.2-0.1,0.2-0.2l0,0c0.1-0.1,0.2-0.2,0.2-0.4c0-0.2-0.1-0.3-0.2-0.4l0,0
		c0-0.1,0-0.2-0.1-0.2c-0.2-1-0.9-1.8-1.9-2l0,0l0,0c0,0,0-0.1-0.1-0.1c-0.1-0.1-0.2-0.3-0.3-0.5c0.2,0.1,0.4,0.2,0.6,0.4v-1.3
		c-0.2,0.2-0.4,0.3-0.6,0.4c0.1-0.2,0.2-0.4,0.4-0.6h-1.3c0.2,0.1,0.3,0.3,0.4,0.6c-0.2-0.1-0.4-0.3-0.6-0.4v1.3
		c0.2-0.2,0.4-0.3,0.6-0.4c-0.1,0.2-0.2,0.4-0.4,0.6l0,0c-1,0.2-1.8,1-2,2.1c-0.1,0.1-0.1,0.1-0.1,0.2v0.1c-0.1,0.1-0.2,0.3-0.1,0.4
		c0,0.1,0.1,0.3,0.2,0.4v0.1c0,0.1,0.1,0.2,0.2,0.2c0,0.1,0.1,0.2,0.2,0.4l0,0c-0.1,0.3-0.3,0.5-0.6,0.6c-0.9,0-1.7-0.2-2.5-0.5
		c-0.4-0.1-0.8-0.3-1.1-0.6c-0.2-0.2-0.2-0.4-0.1-0.6c0.1,0.1,0.3,0.3,0.4,0.4c0-0.1,0-0.2,0.1-0.3c0.2,0.3,0.6,0.5,0.9,0.4
		c-0.3-0.3-0.4-0.8-0.2-1.2c0.3,0.5,0.9,0.6,1.4,0.3c0.2-0.1,0.4-0.4,0.4-0.6c-0.3,0.2-0.6,0.1-0.8-0.1c0,0,0-0.1-0.1-0.1
		c-0.1-0.4,0.3-1.4-0.1-2.1c-0.3-0.6-0.9-1-1.6-1.1c0.1-0.1,0.1-0.2,0.1-0.4c-0.7,0.3-1.5,0.1-1.8-0.6c0.2,0.1,0.4,0.1,0.6,0.1
		c-0.7-0.6-0.7-2.2-0.2-3.1c0.1-0.1,0.1-0.1,0.2-0.1c0.2,0.3,0.6,0.3,0.9,0.6c0.1-0.1,0.1-0.1,0.2-0.2c0,0.6,0,1.3,0.1,1.9
		c0.1,0.6,0.7,0.6,1,0.8c0.4-0.4,1-0.4,0.9-1.1s-0.2-1.3-0.3-1.8c0.2,0.4,0.6,2,0.8,2.5c0.3,0.7,0.9,0.5,1.3,0.7
		c0.2-0.5,0.8-0.6,0.6-1.3c-0.1-0.2-1.1-2.3-1.2-2.7c0.4,0.5,1.3,2.4,1.6,2.9s0.9,0.3,1.4,0.4c0.1-0.4,0.7-0.8,0.2-1.5
		c-0.5-0.9-1.8-2.4-1.9-2.7c0.3,0.2,2.2,2.7,2.3,2.8c0.5,0.4,1.1,0.1,1.5,0.1c0-0.4,0.3-1-0.2-1.5s-1.6-1.2-1.8-1.5
		c0.6,0.5,1.3,1,2.1,1.4c0.5,0.1,1.1,0.1,1.6-0.3c-0.3-0.8,0.1-1.2-1.8-2c1.6,0.6,2.3,0.3,2.9-0.1c-0.2-0.6-0.7-1-1.3-1.2
		c0.8,0.1,1.6-0.3,2.1-1c-0.5-0.6-1.2-0.9-1.9-0.9c1.1-0.1,2-0.8,2.3-1.9l0,0C63.8,35,63,34.9,62.1,35z M36.9,52.3
		c-0.6,0.3-1.2,0.5-1.8,0.6c-0.5,0.1-1.1-0.2-1.3-0.7c-0.2-0.5-0.6-0.7-0.9-0.4c-0.1-0.1-0.3-0.1-0.4,0c-0.1-0.1-0.1-0.3-0.3-0.4
		c0.1-0.3,0-0.6-0.2-0.7c0-0.5-0.4-0.5-0.5-0.7s-0.1-0.3,0.1-0.3c-0.1-0.1-0.1-0.1-0.2-0.1c0.1-0.3-0.1-0.5-0.3-0.6l-2.3-4.8l0,0
		L28.6,44l0,0l-0.3-0.6c0.1-0.1,0.1-0.4,0-0.5c0,0-0.1,0-0.1-0.1l0,0c0,0,0-0.1,0-0.1h0.2c0.8-0.4,1.5-0.9,2.1-1.4
		c-0.3,0.3-1.3,1-1.8,1.5s-0.3,0.9-0.2,1.2l0,0l0,0l0.1,0.2l0,0c0.4,0,1,0.3,1.4-0.1c0.1-0.1,2.1-2.6,2.4-2.8
		c-0.1,0.2-1.3,1.8-1.9,2.7c-0.4,0.7,0.2,1.1,0.3,1.5c0.4-0.1,1.1,0.1,1.4-0.4s1.3-2.4,1.6-2.9c-0.1,0.4-1.2,2.5-1.2,2.7
		c-0.2,0.7,0.4,0.8,0.6,1.3c0.4-0.3,1-0.1,1.3-0.7c0.2-0.5,0.6-2.1,0.8-2.5c0,0.5-0.2,1.1-0.3,1.8s0.6,0.7,0.9,1.1
		c0.3-0.3,0.9-0.2,1-0.8s0.1-1.9,0.1-1.9s0.1,0.1,0.2,0.2c0.2-0.3,0.7-0.3,0.8-0.6c0.1,0,0.1,0.1,0.2,0.1c0.5,0.9,0.6,2.5-0.2,3.1
		c0.2,0,0.4,0,0.6-0.1c-0.3,0.7-1.2,0.9-1.8,0.6c0,0.1,0,0.2,0.1,0.4c-0.7,0-1.3,0.4-1.6,1.1c-0.4,0.8,0,1.7-0.1,2.1
		c-0.1,0.3-0.5,0.4-0.8,0.3c0,0-0.1,0-0.1-0.1c0.1,0.5,0.7,0.9,1.2,0.8c0.3-0.1,0.5-0.2,0.6-0.4c0.1,0.4,0,0.9-0.2,1.2
		c0.4,0,0.7-0.1,0.9-0.4c0,0.1,0.1,0.2,0.1,0.3c0.2-0.1,0.3-0.2,0.4-0.4c0,0.2,0,0.4,0,0.6C37.4,52,37.2,52.2,36.9,52.3z M43.6,24.8
		c0.5,0,1.1,0,1.6,0c0.9,0.8,2,1.3,3.2,1.6c-0.7,0-1.5,0-2.2-0.3c0,0.5,1,1,1.7,1.2l0,0c-0.5,0.1-1,0-1.5-0.2
		c0.2,0.3,0.5,0.6,0.9,0.7c-0.6,0.6-1.5,0.9-2.3,0.8c0.3,0.3,0.6,0.4,1,0.4c-0.9,1.3-1.4,2.8-1.6,4.3c-0.2-1.5-0.7-3-1.6-4.3
		c0.4,0,0.8-0.1,1-0.4c-0.9,0.1-1.7-0.2-2.3-0.8c0.4-0.1,0.7-0.4,0.9-0.7c-0.5,0.2-1,0.3-1.5,0.2c0.7-0.1,1.7-0.7,1.7-1.2
		c-0.7,0.2-1.5,0.3-2.2,0.3C41.6,26.1,42.7,25.6,43.6,24.8L43.6,24.8z M48.1,55c0.2,0.3,0.3,0.9-0.2,1c-0.2-0.6-0.6-1.2-1-1.7
		c-0.4-0.4-0.8-0.9-1.1-1.4C46.3,53.7,47.7,54.5,48.1,55L48.1,55z M41,56c-0.5-0.1-0.4-0.7-0.2-1c0.3-0.6,1.7-1.4,2.3-2.2
		c-0.3,0.5-0.7,1-1.2,1.4C41.5,54.8,41.2,55.4,41,56L41,56z M39.8,56.7c0.2,0.2,0.4,0.3,0.7,0.4c0,0.2,0,0.3,0,0.5
		C39.9,57.5,39.5,57.2,39.8,56.7L39.8,56.7z M43,55.5c0.5-1.1,0.8-2.2,1-3.4c0.3,0.7-0.3,2.6-0.6,3.3c-0.3,1.1-0.4,2.2-0.4,3.4
		C42.1,58.3,42.6,56.3,43,55.5L43,55.5z M45.7,58.7c0-1.1-0.1-2.3-0.4-3.4c-0.2-0.7-0.9-2.6-0.6-3.3c0.2,1.2,0.5,2.3,1,3.4
		C46.1,56.3,46.6,58.3,45.7,58.7L45.7,58.7z M49,56.7c0.3,0.5-0.1,0.8-0.7,0.8c0-0.2,0-0.3,0-0.5C48.6,57,48.8,56.9,49,56.7L49,56.7
		z"/>
	<path class="st0" d="M57.6,97.3c-0.5,0.2-0.9,0.4-1.2,0.6l0.3,3.4l12.5-1.1l-0.3-3.5c-0.3-0.1-0.7-0.2-1.1-0.3
		c-2.4-0.6-3.2-1.3-3.3-2.8c0-0.1,0-0.3,0-0.4c0.1-0.5,0.7-0.6,0.8-2c0.1-0.7,0.8-0.1,0.7-1.7c0-0.6-0.4-0.8-0.4-0.8s0.1-1,0.1-1.7
		c0-0.9-0.8-3.2-4-2.9h-0.1c-3.2,0.3-3.6,2.6-3.5,3.5c0.1,0.7,0.4,1.6,0.4,1.6s-0.3,0.2-0.3,0.8c0.3,1.6,0.8,0.8,1,1.5
		c0.4,1.3,0.9,1.4,1.1,1.8c0.1,0.1,0.1,0.3,0.1,0.4C60.5,95.5,59.8,96.3,57.6,97.3z"/>
</g>
</svg>
