<?xml version="1.0" encoding="utf-8"?>
<!-- Generator: Adobe Illustrator 23.0.3, SVG Export Plug-In . SVG Version: 6.00 Build 0)  -->
<svg version="1.1" id="Layer_1" xmlns="http://www.w3.org/2000/svg" xmlns:xlink="http://www.w3.org/1999/xlink" x="0px" y="0px"
	 viewBox="0 0 120.9 122.9" style="enable-background:new 0 0 120.9 122.9;" xml:space="preserve">
<style type="text/css">
	.st0{fill:#007EC6;}
</style>
<g>
	<path class="st0" d="M117,41.1c-0.9-2.5-3.8-3.8-6.3-2.8c-2.5,0.9-3.8,3.8-2.8,6.3c9.9,26.2-3.3,55.5-29.5,65.4
		c-12.3,4.6-25.9,4.4-37.9-0.8c-3.6-1.5-6.9-3.4-10.1-5.7C7.8,86.8,2.9,55,19.5,32.5C33.1,14,57.4,6.9,78.8,15.2L75.4,21
		c-0.9,1.6-0.2,2.7,1.6,2.4l16.4-2.6c1.5-0.2,2.6-1.5,2.4-3c0-0.2-0.1-0.5-0.2-0.7L90,1.4c-0.6-1.8-1.9-1.9-2.8-0.3l-3.3,5.6
		C53-6.2,17.6,8.3,4.7,39.1c-12.9,30.8,1.6,66.2,32.4,79.1s66.2-1.6,79.1-32.4C122.2,71.6,122.5,55.5,117,41.1L117,41.1z"/>
	<path class="st0" d="M87.1,63H61V36.9c0-2.2-1.8-3.9-3.9-3.9c-2.2,0-3.9,1.8-3.9,3.9v34h34c2.2,0,3.9-1.8,3.9-3.9S89.3,63,87.1,63
		L87.1,63z"/>
</g>
</svg>
