<?xml version="1.0" encoding="utf-8"?>
<!-- Generator: Adobe Illustrator 23.0.3, SVG Export Plug-In . SVG Version: 6.00 Build 0)  -->
<svg version="1.1" id="Layer_1" xmlns="http://www.w3.org/2000/svg" xmlns:xlink="http://www.w3.org/1999/xlink" x="0px" y="0px"
	 viewBox="0 0 118.3 120" style="enable-background:new 0 0 118.3 120;" xml:space="preserve">
<style type="text/css">
	.st0{fill:#007EC6;}
</style>
<g>
	<path class="st0" d="M96.7,120c-4.7,0-9.1-2.4-11.7-6.4H28.8c-4.2,4.6-11.3,5-16,0.8c-2.4-2.2-3.8-5.2-3.7-8.4
		c0-6.3,5.1-11.4,11.3-11.4c0,0,0,0,0,0l0,0c3.2,0,6.2,1.4,8.4,3.8H85c2.6-4,6.9-6.4,11.7-6.4l0,0c5.3,0,10.1,3,12.5,7.8l0.4,0.7
		h-9.7c-3,0.1-5.3,2.5-5.3,5.5c0,1.5,0.6,2.9,1.6,4c1,1,2.3,1.5,3.6,1.5h9.8l-0.4,0.7C106.9,117,102,120,96.7,120z M28.4,112.6h57.2
		l0.1,0.2c3.7,6.1,11.7,8,17.7,4.2c1.8-1.1,3.4-2.7,4.5-4.6h-8.1c-1.6,0-3.2-0.6-4.3-1.8c-1.2-1.2-1.9-2.9-1.9-4.7
		c0-3.5,2.7-6.4,6.3-6.5h8.1c-2.3-4-6.6-6.5-11.2-6.5l0,0c-4.5,0-8.6,2.3-11,6.1l-0.2,0.2H28.4l-0.2-0.2c-1.9-2.3-4.8-3.6-7.8-3.6
		l0,0c-5.7,0-10.4,4.6-10.4,10.3c0,5.7,4.6,10.4,10.3,10.4c3,0,5.9-1.3,7.9-3.6L28.4,112.6z M23.6,111.5h-6.3l-3.2-5.4l3.2-5.4h6.3
		l3.2,5.4L23.6,111.5z M17.9,110.5H23l2.6-4.4l-2.6-4.4h-5.1l-2.6,4.4L17.9,110.5z"/>
	<path class="st0" d="M70.9,29.2c-0.2-5.9,4.4-10.8,10.3-11c5.9-0.2,10.8,4.4,11,10.3c0,0.2,0,0.4,0,0.7c0,0,0,0,0,0.1
		c1.1,0,2.2,0.2,3.2,0.3C93.4,19.5,87.9,12,81.6,12H36.8c-6.3,0-11.8,7.5-13.9,17.6c1.5-0.3,3.1-0.4,4.6-0.4L70.9,29.2z"/>
	<path class="st0" d="M81.6,21.8c-4,0-7.3,3.3-7.3,7.3h14.7C88.9,25.1,85.6,21.8,81.6,21.8L81.6,21.8z"/>
	<path class="st0" d="M107.2,27.1C104,11,93.7,0,81.6,0H36.8C24.6,0,14.4,11,11.1,27.1C4.1,32.1,0,40.6,0,50.5
		c-0.2,6.8,2,13.5,6.2,18.9v10.6c0,3.9,3.1,7,7,7h16.5c3.9,0,7-3.1,7-7V79h44.7v1.1c0,3.9,3.1,7,7,7h16.6c3.9,0,7-3.1,7-7V69.4
		c4.2-5.4,6.4-12.1,6.2-18.9C118.3,40.6,114.2,32.1,107.2,27.1z M105.1,66.7v13.3H88.5V72H29.8v8.1H13.2V66.7C9.1,62.8,7,57,7,50.6
		c0-8.4,3.6-15.7,10.5-19.2C19.4,17.3,27.1,7,36.7,7h44.8c9.6,0,17.4,10.3,19.3,24.4c6.9,3.5,10.5,10.8,10.5,19.2
		C111.3,57,109.2,62.8,105.1,66.7z"/>
	<path class="st0" d="M25,43.6c-3.9,0-7,3.1-7,7s3.1,7,7,7s7-3.1,7-7S28.9,43.6,25,43.6z"/>
	<path class="st0" d="M79.3,46.9H39c-0.9,0-1.7,0.7-1.7,1.7s0.7,1.7,1.7,1.7h40.4c0.9,0,1.7-0.7,1.7-1.7S80.3,46.9,79.3,46.9
		L79.3,46.9z"/>
	<path class="st0" d="M93.3,43.6c-3.9,0-7,3.1-7,7s3.1,7,7,7s7-3.1,7-7S97.2,43.6,93.3,43.6z"/>
	<path class="st0" d="M79.3,53H39c-0.9,0-1.7,0.7-1.7,1.7s0.7,1.7,1.7,1.7h40.4c0.9,0,1.7-0.7,1.7-1.7S80.3,53,79.3,53L79.3,53z"/>
</g>
</svg>
