<?xml version="1.0" encoding="utf-8"?>
<!-- Generator: Adobe Illustrator 23.0.3, SVG Export Plug-In . SVG Version: 6.00 Build 0)  -->
<svg version="1.1" id="Layer_1" xmlns="http://www.w3.org/2000/svg" xmlns:xlink="http://www.w3.org/1999/xlink" x="0px" y="0px"
	 viewBox="0 0 106.9 121.7" style="enable-background:new 0 0 106.9 121.7;" xml:space="preserve">
<style type="text/css">
	.st0{fill:#007EC6;}
</style>
<g>
	<path class="st0" d="M91,67.8H71.6c-2,0-3.6,1.6-3.6,3.6V85c0,2,1.6,3.6,3.6,3.6H91c2,0,3.6-1.6,3.6-3.6V71.4
		C94.6,69.5,93,67.8,91,67.8z M87.4,75v6.3H75.2V75H87.4z"/>
	<path class="st0" d="M33.1,0v17.7l-11,6.3l-11-6.4V0C0.5,6.1-3.1,19.5,2.9,30.1c2.1,3.7,5.3,6.8,9.2,8.7v72.8
		c0.2,5.8,5,10.3,10.7,10.1c5.5-0.2,9.9-4.6,10.1-10.1V38.4c10.6-5.9,14.4-19.3,8.5-29.9C39.5,4.9,36.6,2,33.1,0L33.1,0z
		 M24.9,116.2c-0.7,0.8-1.8,1.2-2.8,1.2c-2.2,0.2-4.2-1.3-4.4-3.5c-0.2-2.2,1.3-4.2,3.5-4.4c0.3,0,0.6,0,0.9,0c1,0,2.1,0.4,2.8,1.1
		C26.4,112.1,26.4,114.7,24.9,116.2z"/>
	<rect x="15.1" y="94.3" class="st0" width="17.8" height="7.2"/>
	<rect x="15.1" y="52.3" class="st0" width="17.8" height="7.2"/>
	<path class="st0" d="M101.9,56.8l-2.5-2.6l-9.2-24.9c-1.8-4.6-6.2-7.7-11.1-7.7h-30c-0.2,2.5-0.8,4.9-1.7,7.2h31.7
		c1.9,0,3.7,1.2,4.3,3l7.6,20.5h-3.8c-1.9-9.9-11.3-16.5-21.2-15c-7.9,1.2-14.1,7.2-15.7,15H38v7.2h56.5l2.2,2.3
		c0,0.1,0.1,0.1,0.2,0.2l0.1,0c1.7,1.7,2.7,4,2.8,6.4v21.8c-0.2,2.4-2.2,4.2-4.6,4.2H38v7.2h38.3v4.3c0,6.5,5.3,11.8,11.9,11.8H95
		c6.5,0,11.8-5.3,11.9-11.8V68.4C106.8,64,105,59.9,101.9,56.8z M57.7,52.3c2-6.1,8.5-9.5,14.6-7.5c3.5,1.1,6.3,3.9,7.5,7.5H57.7z
		 M99.7,105.8c0,2.6-2.1,4.6-4.7,4.6h-6.9c-2.6,0-4.6-2.1-4.7-4.6v-4.3H95c1.6,0,3.2-0.3,4.7-0.9V105.8z"/>
	<path class="st0" d="M26.3,21.6L22.1,24L18,21.6h-5.3c-3.5,0-6.9,1.6-9.1,4.3h11.6v2.9H42c1.1-2.3,1.8-4.7,2.1-7.2H26.3z"/>
	<path class="st0" d="M57.6,80H38v7.2h19.6c2,0,3.6-1.6,3.6-3.6S59.6,80,57.6,80L57.6,80L57.6,80z"/>
	<path class="st0" d="M57.6,69.5H38v7.2h19.6c2,0.1,3.7-1.4,3.8-3.4c0.1-2-1.4-3.7-3.4-3.8C57.9,69.5,57.7,69.5,57.6,69.5L57.6,69.5
		z"/>
</g>
</svg>
