<?xml version="1.0" encoding="utf-8"?>
<!-- Generator: Adobe Illustrator 23.0.3, SVG Export Plug-In . SVG Version: 6.00 Build 0)  -->
<svg version="1.1" id="Layer_1" xmlns="http://www.w3.org/2000/svg" xmlns:xlink="http://www.w3.org/1999/xlink" x="0px" y="0px"
	 viewBox="0 0 94.5 121.9" style="enable-background:new 0 0 94.5 121.9;" xml:space="preserve">
<style type="text/css">
	.st0{fill:#007EC6;}
</style>
<g>
	<path class="st0" d="M47.3,8.9c21.1,0,38.3,17.2,38.3,38.3c0,5.4-1.1,10.7-3.3,15.6c-9.6,21-27.9,43.1-33.3,49.4
		c-0.8,0.9-2.1,1-3,0.2c-0.1-0.1-0.2-0.1-0.2-0.2c-5.4-6.3-23.8-28.4-33.3-49.4C10.1,58,8.9,52.6,9,47.2C9,26.1,26.1,9,47.3,8.9
		 M47.3,67.1c11,0,19.9-8.9,19.9-19.9c0-11-8.9-19.9-19.9-19.9c-11,0-19.9,8.9-19.9,19.9C27.4,58.2,36.3,67.1,47.3,67.1 M47.3,0
		C21.2,0,0,21.2,0,47.2c0,6.7,1.4,13.3,4.2,19.4c10.1,22,29.1,45,34.7,51.5c4,4.6,11,5.2,15.6,1.2c0.4-0.4,0.8-0.8,1.2-1.2
		c5.6-6.5,24.6-29.4,34.7-51.5c2.8-6.1,4.2-12.7,4.2-19.4C94.5,21.2,73.3,0,47.3,0L47.3,0z M47.3,58.2c-6.1,0-11-4.9-11-11
		c0-6.1,4.9-11,11-11c6.1,0,11,4.9,11,11c0,2.9-1.2,5.7-3.2,7.8C52.9,57,50.2,58.2,47.3,58.2z"/>
</g>
</svg>
