<?xml version="1.0" encoding="utf-8"?>
<!-- Generator: Adobe Illustrator 21.1.0, SVG Export Plug-In . SVG Version: 6.00 Build 0)  -->
<svg version="1.1" id="OBJECTS" xmlns="http://www.w3.org/2000/svg" xmlns:xlink="http://www.w3.org/1999/xlink" x="0px" y="0px"
	 viewBox="0 0 196.1 86.6" style="enable-background:new 0 0 196.1 86.6;" xml:space="preserve">
<style type="text/css">
	.st0{fill:#F7F7F8;}
	.st1{fill:#007FC7;}
	.st2{fill:url(#SVGID_1_);}
</style>
<g>
	<path class="st0" d="M0.5,42.8c0.4,1.1,2.1,1.4,5.1,1.7s10.8,1.4,12.6,1.7c1.8,0.4,2.5,0.8,2.5,0.8s-2,3.4-4.3,5
		c-2.2,1.6-4.8,3-5.9,5S7,70.7,7,70.7v15.9h182.1V70.7c0,0-2.3-11.6-3.4-13.6c-1.1-2-3.7-3.4-5.9-5c-2.2-1.6-4.3-5-4.3-5
		s0.6-0.4,2.5-0.8c1.8-0.4,9.7-1.4,12.6-1.7s4.7-0.7,5-1.7c0.4-1.1-0.3-2.1-0.3-2.1s0.7-2.2,0.7-3.9c0-1.7-2.7-3.8-5.6-4
		c-2.9-0.3-9.1-0.9-11.7-0.3c-2.6,0.6-1.9,7.5-1.9,7.5h-4.5c0,0-4.2-9.4-7.4-16.3c-3.2-6.9-11.1-18.6-12.9-19.2s-3.9,0-3.9,0
		C137.8,0.3,98.1,0,98.1,0S58.4,0.3,47.8,4.5c0,0-2.2-0.6-3.9,0c-1.7,0.6-9.7,12.3-12.9,19.2C27.9,30.6,23.7,40,23.7,40h-4.5
		c0,0,0.7-6.9-1.9-7.5s-8.8,0-11.7,0.3S0,35.1,0,36.8s0.7,3.9,0.7,3.9S0.1,41.7,0.5,42.8z"/>
	<path class="st1" d="M51.6,80.1c0,0-1.1,2.5-1.5,3.4c-0.5,0.9-1.4,1.2-4.2,1.1c-2.8-0.2-9-0.6-12.5-1c-3.5-0.4-15.7-5.7-17.3-7.4
		c-1.6-1.7-2.4-4.2-3-7.4c-0.6-3.2,1-2.6,2.5-2.2s9.9,3.2,14.8,4.3c4.9,1.2,15.4,4.4,17.1,5C50.7,76.9,52.4,77.4,51.6,80.1z"/>
	<path class="st1" d="M160.3,24.5c-1.8-3.8-7.5-13.8-8.5-14.7c-1-0.9-14-1.7-22.1-2C121.4,7.3,101.1,7,98.1,7S74.7,7.3,66.6,7.7
		c-8.2,0.4-21.1,1.1-22.1,2s-6.8,10.9-8.5,14.7S30,40.1,31.1,41.6c1.1,1.5,13,2.1,19.4,2.3c6.4,0.2,47.6,0,47.6,0s41.2,0.2,47.6,0
		c6.4-0.2,18.3-0.8,19.4-2.3C166.2,40.1,162,28.2,160.3,24.5z"/>
	<path class="st1" d="M144.6,80.1c0,0,1.1,2.5,1.5,3.4c0.5,0.9,1.4,1.2,4.2,1.1c2.8-0.2,9-0.6,12.5-1c3.5-0.4,15.7-5.7,17.3-7.4
		c1.6-1.7,2.4-4.2,3-7.4c0.6-3.2-1-2.6-2.5-2.2s-9.9,3.2-14.8,4.3c-4.9,1.2-15.4,4.4-17.1,5C145.4,76.9,143.7,77.4,144.6,80.1z"/>
	
		<linearGradient id="SVGID_1_" gradientUnits="userSpaceOnUse" x1="85.3525" y1="211.4955" x2="110.8272" y2="220.7675" gradientTransform="matrix(1 0 0 -1 0 294)">
		<stop  offset="0.4454" style="stop-color:#007FC7"/>
		<stop  offset="0.5598" style="stop-color:#EC6A06"/>
	</linearGradient>
	<path class="st2" d="M111.5,75.2c-0.3-0.8-0.8-1.6-1.4-2.2c-0.6-0.6-1.3-1.1-2.2-1.4c-0.7-0.3-1.4-0.4-2.2-0.5h-0.9v0
		c-1.8,0.1-3.2,0.8-4.4,1.8l-1.2-1.2v4.4h4.4l-1.2-1.2c0.8-0.6,1.7-0.9,2.8-0.9h0c0.5,0,1,0.1,1.5,0.3c0.5,0.2,0.9,0.5,1.2,0.9
		c0.3,0.3,0.6,0.7,0.8,1.2c0.2,0.5,0.3,1,0.3,1.6c0,0.6-0.1,1.1-0.3,1.6s-0.4,0.9-0.8,1.2c-0.4,0.4-0.8,0.7-1.2,0.9
		c-0.6,0.3-1.3,0.3-2,0.3c-1.9-0.3-3.4-2.1-4.9-4.2c0,0,0,0,0,0l-1.8-2.3c-1.7-2.1-3.7-3.9-6.6-4.1l-0.4,0c0,0,0,0-0.1,0l-0.5,0
		c-0.8,0.1-1.6,0.2-2.4,0.5c-0.9,0.4-1.6,0.9-2.2,1.5c-0.6,0.6-1,1.3-1.4,2.1c-0.3,0.8-0.5,1.7-0.5,2.6c0,0.9,0.2,1.7,0.5,2.5
		c0.3,0.8,0.8,1.5,1.3,2.1c0.6,0.6,1.4,1.2,2.2,1.6c0.7,0.3,1.5,0.5,2.4,0.6l0.5,0c0,0,0,0,0,0c0,0,0,0,0,0l0.5,0
		c1.8-0.1,3.2-1,4.4-2.1l1.3,1.3v-4.4h-4.4l1.1,1.1C93,81.3,92,81.8,91,81.8c-0.5,0-1-0.1-1.5-0.3c-0.5-0.2-0.9-0.5-1.2-0.9
		c-0.3-0.3-0.6-0.8-0.8-1.2c-0.2-0.5-0.3-1-0.3-1.5c0-0.6,0.1-1.1,0.3-1.5c0.2-0.5,0.5-0.9,0.8-1.2c0.4-0.4,0.8-0.7,1.2-0.9
		c0.5-0.2,1-0.3,1.5-0.3h0c2.2,0,3.8,1.7,5.4,3.7l1.8,2.4c1.8,2.4,3.8,4.6,6.9,4.7l0,0h0.2c0,0,0,0,0,0h0c0,0,0.2,0,0.5,0
		c1.7,0,3.6-1,4.5-2c0.6-0.6,1.1-1.3,1.4-2.1s0.5-1.7,0.5-2.6C112,76.9,111.9,76,111.5,75.2z"/>
</g>
</svg>
