<svg id="Layer_1" data-name="Layer 1" xmlns="http://www.w3.org/2000/svg" viewBox="0 0 510.51 36.85"><defs><style>.cls-1{fill:#1d1d1b;}</style></defs><title>logo_gorizont</title><path class="cls-1" d="M29.16,18.66a9.57,9.57,0,0,0-2.31-2.2,8.48,8.48,0,0,0,1.36-1.68,7.81,7.81,0,0,0,.75-2,10.07,10.07,0,0,0,.22-2.09,10,10,0,0,0-.66-3.71,8.72,8.72,0,0,0-1.94-3,10.46,10.46,0,0,0-3.82-2.42A13.07,13.07,0,0,0,18.24.75H0V36.14H18.9a13,13,0,0,0,4.81-.88,12.57,12.57,0,0,0,3.92-2.46,10.55,10.55,0,0,0,2.51-3.53,11,11,0,0,0,.9-4.44A10.36,10.36,0,0,0,29.16,18.66ZM8.29,13.5V8.27h9.64a3.35,3.35,0,0,1,2.37.79,2.35,2.35,0,0,1,.7,1.86,2.74,2.74,0,0,1-.63,1.84,2.52,2.52,0,0,1-.73.56,1.74,1.74,0,0,1-.84.19ZM22.92,24.76a4.52,4.52,0,0,1-.25,1.54,2.93,2.93,0,0,1-.62,1,5,5,0,0,1-1.44.93,4.06,4.06,0,0,1-1.63.34H8.29V21h11a3.75,3.75,0,0,1,1.6.36,4.18,4.18,0,0,1,1.32.93A3.62,3.62,0,0,1,22.92,24.76Z"/><polygon class="cls-1" points="146.17 0.75 135.41 16.19 124.38 0.75 116.19 0.75 116.19 36.14 124.14 36.14 124.14 14.2 133.46 27.29 136.84 27.29 146.04 14.23 146.04 36.14 154.32 36.14 154.32 0.75 146.17 0.75"/><polygon class="cls-1" points="168.91 28.45 168.91 21.51 186.5 21.51 186.5 13.83 168.91 13.83 168.91 8.54 188.59 8.54 188.59 0.75 160.62 0.75 160.62 36.14 189.36 36.14 189.36 28.45 168.91 28.45"/><path class="cls-1" d="M225.43,34.32q-1.49-2.48-3.11-5.12l-2.41-3.93a11.3,11.3,0,0,0,1.56-1A13.86,13.86,0,0,0,223.65,22a12.67,12.67,0,0,0,2.61-8,12.84,12.84,0,0,0-1.07-5.28,14,14,0,0,0-2.87-4.16,13.55,13.55,0,0,0-4.43-2.87,14.28,14.28,0,0,0-5.31-1H195.11V36.14h8.29v-9h8.26l5.35,9h9.53ZM218,14.07a6,6,0,0,1-.37,2.07,5.21,5.21,0,0,1-1.13,1.8,4,4,0,0,1-1.56,1.12,5.63,5.63,0,0,1-2.22.43h-9.31v-11h9a5.88,5.88,0,0,1,2.41.5,4.64,4.64,0,0,1,1.8,1.38A5.07,5.07,0,0,1,218,14.07Z"/><path class="cls-1" d="M253,.75h-7.89L229.44,36.14h8.84l2.69-6h16l2.75,6h8.94Zm.79,21.66h-9.59l4.73-12Z"/><polygon class="cls-1" points="297.94 0.75 297.94 22.34 280.19 0.75 272.98 0.75 272.98 36.14 281.15 36.14 281.15 14.61 298.79 36.14 306 36.14 306 0.75 297.94 0.75"/><path class="cls-1" d="M328,21.84l8.47.44v5a13.51,13.51,0,0,1-2.59,1.13,12.31,12.31,0,0,1-7.82-.19,10.08,10.08,0,0,1-3.23-2.11,9.84,9.84,0,0,1-2.22-3.31,11.41,11.41,0,0,1-.81-4.4,11,11,0,0,1,.77-4.14A9.53,9.53,0,0,1,322.6,11,10.69,10.69,0,0,1,326,8.75a12.24,12.24,0,0,1,8.8,0,12.67,12.67,0,0,1,3.91,2.79l.85.85,5.6-5.6-.85-.85a19.67,19.67,0,0,0-6.45-4.44,21.7,21.7,0,0,0-15.14,0,18.2,18.2,0,0,0-5.93,3.84,17.29,17.29,0,0,0-4,5.85,18.39,18.39,0,0,0-1.41,7.17,19.31,19.31,0,0,0,1.14,6.68,17.91,17.91,0,0,0,3.09,5.41,17.06,17.06,0,0,0,6.16,4.61A20.06,20.06,0,0,0,330,36.74a19.37,19.37,0,0,0,5.23-.65,32.13,32.13,0,0,0,5.19-2A15.71,15.71,0,0,0,344,31.54l.69-.61V14.55H328Z"/><path class="cls-1" d="M387.63.6h-7.89L364.06,36h8.84l2.69-6h16l2.75,6h8.94Zm.79,21.66h-9.59l4.73-12Z"/><path class="cls-1" d="M428.31.6V21.3a8.1,8.1,0,0,1-.55,3,6.76,6.76,0,0,1-1.48,2.27,8.18,8.18,0,0,1-2.39,1.63,7,7,0,0,1-2.91.61,6.88,6.88,0,0,1-5.29-2.24,7.4,7.4,0,0,1-2.13-5.32V.6h-8.29V20.93a16,16,0,0,0,1.19,6.18,15.45,15.45,0,0,0,3.34,5,15.21,15.21,0,0,0,4.83,3.22A16.18,16.18,0,0,0,421,36.54a16,16,0,0,0,6-1.11,15.45,15.45,0,0,0,4.81-3.08,15.67,15.67,0,0,0,4.76-11.41V.6Z"/><polygon class="cls-1" points="440.25 0.6 440.25 8.28 452.51 8.28 452.51 35.99 460.69 35.99 460.69 8.28 472.95 8.28 472.95 0.6 440.25 0.6"/><path class="cls-1" d="M509.16,11.14a18.28,18.28,0,0,0-3.89-6,17.33,17.33,0,0,0-5.87-3.84,21,21,0,0,0-15.16.15,17.6,17.6,0,0,0-6,4.15,17.86,17.86,0,0,0-3.65,5.71,18.61,18.61,0,0,0-1.3,6.93,17.8,17.8,0,0,0,1.33,6.78,18.6,18.6,0,0,0,3.56,5.64,18.87,18.87,0,0,0,6,4.26,18.48,18.48,0,0,0,7.76,1.62,19.5,19.5,0,0,0,7.62-1.44,18.11,18.11,0,0,0,5.94-4,17.33,17.33,0,0,0,3.72-5.75,19.1,19.1,0,0,0,1.29-7.07A19,19,0,0,0,509.16,11.14Zm-6.93,7.16a11.35,11.35,0,0,1-.74,4.18,10.32,10.32,0,0,1-2,3.25,9.94,9.94,0,0,1-3.36,2.36,10.85,10.85,0,0,1-8.38,0,9.71,9.71,0,0,1-3.32-2.39,10.7,10.7,0,0,1-2-3.26,10.83,10.83,0,0,1-.76-4.11,11,11,0,0,1,.76-4.16,10.68,10.68,0,0,1,2-3.26,10,10,0,0,1,3.36-2.35,10.49,10.49,0,0,1,4.17-.84,10.42,10.42,0,0,1,7.49,3.15,10,10,0,0,1,2,3.22A11.36,11.36,0,0,1,502.23,18.29Z"/><path class="cls-1" d="M109.58,11.29a18.28,18.28,0,0,0-3.89-6A17.33,17.33,0,0,0,99.82,1.5a18.94,18.94,0,0,0-6-1.35H91.48v0A20.26,20.26,0,0,0,79.53,4.94L76.4,1.81V13.63H88.22L85,10.41a12.54,12.54,0,0,1,7.45-2.57h0A10.34,10.34,0,0,1,99.85,11a10,10,0,0,1,2,3.22,11.36,11.36,0,0,1,.77,4.25,11.32,11.32,0,0,1-.74,4.18,10.32,10.32,0,0,1-2,3.25,9.94,9.94,0,0,1-3.36,2.36,10.74,10.74,0,0,1-5.28.73c-5.15-.7-9.14-5.69-13.22-11.26v0l-4.78-6.3C68.73,5.73,63.31.74,55.47.2L54.31.15h-.22l-1.2.07a18.94,18.94,0,0,0-6.32,1.44,17.56,17.56,0,0,0-6,4.15,17.84,17.84,0,0,0-3.66,5.71,18.61,18.61,0,0,0-1.3,6.93A17.8,17.8,0,0,0,37,25.22a18.59,18.59,0,0,0,3.56,5.64,18.86,18.86,0,0,0,6,4.26,18.12,18.12,0,0,0,6.38,1.55l1.2.06h.18l1.2-.07C60.25,36.3,64,34.05,67.31,31l3.44,3.44V22.59H58.94l2.94,2.94C59.54,27.65,57,29,54.12,29a10.3,10.3,0,0,1-4.07-.85,9.74,9.74,0,0,1-3.32-2.38,10.7,10.7,0,0,1-2-3.26,10.84,10.84,0,0,1-.76-4.11,11,11,0,0,1,.76-4.16,10.68,10.68,0,0,1,2-3.26A10,10,0,0,1,50.1,8.66a10.48,10.48,0,0,1,4-.82h0c6,0,10.29,4.44,14.42,9.84l4.76,6.41c4.84,6.43,10.19,12.27,18.46,12.6l0,0h1.89c4.52,0,9.62-2.8,12.26-5.47a17.33,17.33,0,0,0,3.72-5.75,19.12,19.12,0,0,0,1.3-7.07A19,19,0,0,0,109.58,11.29Z"/></svg>