<svg xmlns="http://www.w3.org/2000/svg" xmlns:xlink="http://www.w3.org/1999/xlink" viewBox="0 0 613 298"><defs><linearGradient id="a" x1="27.56" y1="250.59" x2="586.19" y2="47.27" gradientUnits="userSpaceOnUse"><stop offset="0.45" stop-color="#007fc8"/><stop offset="0.56" stop-color="#ed6b06"/></linearGradient></defs><title>logo_infinity-0</title><path d="M602,91a149,149,0,0,0-32-48,141,141,0,0,0-48-31A154,154,0,0,0,473,0H454c-39,2-70,17-97,39L332,14v96h96L402,84c18-13,38-21,61-21h0a84,84,0,0,1,60,26,82,82,0,0,1,17,26,92,92,0,0,1,6,35,92,92,0,0,1-6,34,84,84,0,0,1-16,26,81,81,0,0,1-27,19c-13,6-28,7-43,6-42-6-74-46-108-92h0L306,91C269,46,225,5,161,1H140c-18,1-36,5-51,12A143,143,0,0,0,40,46,145,145,0,0,0,11,93,151,151,0,0,0,0,149a145,145,0,0,0,11,55,151,151,0,0,0,29,46,154,154,0,0,0,49,35c16,7,33,11,52,13h21c39-3,70-21,96-46l28,28V183H190l24,24c-19,17-40,29-63,29a84,84,0,0,1-33-7,79,79,0,0,1-27-19,87,87,0,0,1-17-27,88,88,0,0,1-6-33,90,90,0,0,1,6-34A87,87,0,0,1,90,89a81,81,0,0,1,27-19,85,85,0,0,1,32-7h0c49,0,84,36,117,80l39,52c39,52,83,100,150,103h16c37,0,78-23,100-45a141,141,0,0,0,30-47,156,156,0,0,0,11-58A155,155,0,0,0,602,91Z" fill="url(#a)"/></svg>