<svg width="510.51" height="36.85" xmlns="http://www.w3.org/2000/svg">
 <defs>
  <style>.st0{fill:#1d1d1b;}</style>
 </defs>
 <title>logo_gorizont</title>
 <g>
  <title>background</title>
  <rect fill="none" id="canvas_background" height="402" width="582" y="-1" x="-1"/>
 </g>
 <g>
  <title>Boomerang Auto</title>
  <path class="st0" d="M29.2,18.7c-0.6-0.9-1.4-1.6-2.3-2.2c0.5-0.5,1-1.1,1.4-1.7c0.3-0.6,0.6-1.3,0.8-2c0.1-0.7,0.2-1.4,0.2-2.1
	c0-1.3-0.2-2.5-0.7-3.7c-0.4-1.1-1.1-2.1-1.9-3c-1.1-1.1-2.4-1.9-3.8-2.4c-1.4-0.5-3-0.8-4.5-0.8H0v35.4h18.9c1.6,0,3.3-0.3,4.8-0.9
	c1.4-0.6,2.8-1.4,3.9-2.5c1.1-1,1.9-2.2,2.5-3.5c0.6-1.4,0.9-2.9,0.9-4.4C31.1,22.6,30.4,20.5,29.2,18.7z M8.3,13.5V8.3h9.6
	c0.9-0.1,1.7,0.2,2.4,0.8c0.5,0.5,0.8,1.2,0.7,1.9c0,0.7-0.2,1.3-0.6,1.8c-0.2,0.2-0.5,0.4-0.7,0.6c-0.3,0.1-0.5,0.2-0.8,0.2
	L8.3,13.5z M22.9,24.8c0,0.5-0.1,1-0.2,1.5c-0.1,0.4-0.3,0.7-0.6,1c-0.4,0.4-0.9,0.7-1.4,0.9c-0.5,0.2-1.1,0.3-1.6,0.3H8.3V21h11
	c0.6,0,1.1,0.1,1.6,0.4c0.5,0.2,0.9,0.5,1.3,0.9C22.7,23,23,23.9,22.9,24.8z"/>
<polygon class="st0" points="146.2,0.8 135.4,16.2 124.4,0.8 116.2,0.8 116.2,36.1 124.1,36.1 124.1,14.2 133.5,27.3 136.8,27.3 
	146,14.2 146,36.1 154.3,36.1 154.3,0.8 "/>
<polygon class="st0" points="168.9,28.5 168.9,21.5 186.5,21.5 186.5,13.8 168.9,13.8 168.9,8.5 188.6,8.5 188.6,0.8 160.6,0.8 
	160.6,36.1 189.4,36.1 189.4,28.5 "/>
<path class="st0" d="M225.4,34.3c-1-1.7-2-3.4-3.1-5.1l-2.4-3.9c0.5-0.3,1.1-0.6,1.6-1c0.8-0.7,1.5-1.4,2.2-2.3
	c1.8-2.3,2.7-5.1,2.6-8c0-1.8-0.3-3.6-1.1-5.3c-0.7-1.5-1.7-3-2.9-4.2c-1.3-1.2-2.8-2.2-4.4-2.9c-1.7-0.7-3.5-1-5.3-1h-17.5v35.5
	h8.3v-9h8.3l5.4,9h9.5L225.4,34.3z M218,14.1c0,0.7-0.1,1.4-0.4,2.1c-0.2,0.7-0.6,1.3-1.1,1.8c-0.4,0.5-1,0.9-1.6,1.1
	c-0.7,0.3-1.5,0.4-2.2,0.4h-9.3v-11h9c0.8,0,1.7,0.2,2.4,0.5c0.7,0.3,1.3,0.8,1.8,1.4C217.6,11.4,218.1,12.7,218,14.1z"/>
<path class="st0" d="M253,0.8h-7.9l-15.7,35.4h8.8l2.7-6h16l2.8,6h8.9L253,0.8z M253.8,22.4h-9.6l4.7-12L253.8,22.4z"/>
<polygon class="st0" points="297.9,0.8 297.9,22.3 280.2,0.8 273,0.8 273,36.1 281.1,36.1 281.1,14.6 298.8,36.1 306,36.1 306,0.8 
	"/>
<path class="st0" d="M328,21.8l8.5,0.4v5c-0.8,0.5-1.7,0.8-2.6,1.1c-2.6,0.8-5.3,0.7-7.8-0.2c-1.2-0.5-2.3-1.2-3.2-2.1
	c-1-0.9-1.7-2.1-2.2-3.3c-0.6-1.4-0.8-2.9-0.8-4.4c0-1.4,0.2-2.8,0.8-4.1c0.4-1.2,1.1-2.3,2-3.3c1-1,2.1-1.7,3.4-2.2
	c2.8-1.1,6-1.1,8.8,0c1.5,0.7,2.8,1.6,3.9,2.8l0.9,0.9l5.6-5.6l-0.9-0.8c-1.8-1.9-4-3.4-6.5-4.4c-4.9-1.8-10.3-1.8-15.1,0
	c-2.2,0.9-4.2,2.2-5.9,3.8c-1.7,1.7-3.1,3.6-4,5.9c-0.9,2.3-1.4,4.7-1.4,7.2c0,2.3,0.4,4.5,1.1,6.7c0.7,2,1.8,3.8,3.1,5.4
	c1.7,2,3.8,3.6,6.2,4.6c2.6,1.1,5.4,1.7,8.2,1.7c1.8,0,3.5-0.2,5.2-0.7c1.8-0.5,3.5-1.2,5.2-2c1.3-0.7,2.5-1.5,3.6-2.5l0.7-0.6V14.6
	H328V21.8z"/>
<path class="st0" d="M387.6,0.6h-7.9L364.1,36h8.8l2.7-6h16l2.8,6h8.9L387.6,0.6z M388.4,22.3h-9.6l4.7-12L388.4,22.3z"/>
<path class="st0" d="M428.3,0.6v20.7c0,1-0.2,2-0.5,3c-0.3,0.8-0.8,1.6-1.5,2.3c-0.7,0.7-1.5,1.2-2.4,1.6c-0.9,0.4-1.9,0.6-2.9,0.6
	c-2,0.1-3.9-0.8-5.3-2.2c-1.4-1.4-2.2-3.3-2.1-5.3V0.6h-8.3v20.3c0,2.1,0.4,4.2,1.2,6.2c0.8,1.9,1.9,3.6,3.3,5
	c1.4,1.4,3,2.5,4.8,3.2c2,0.8,4.2,1.2,6.4,1.2c2.1,0,4.1-0.4,6-1.1c1.8-0.7,3.4-1.8,4.8-3.1c3.1-3,4.8-7.1,4.8-11.4V0.6H428.3z"/>
<polygon class="st0" points="440.2,0.6 440.2,8.3 452.5,8.3 452.5,36 460.7,36 460.7,8.3 473,8.3 473,0.6 "/>
<path class="st0" d="M509.2,11.1c-0.9-2.2-2.2-4.3-3.9-6c-1.7-1.7-3.7-3-5.9-3.8c-4.9-1.8-10.3-1.8-15.2,0.1c-2.3,0.9-4.3,2.4-6,4.2
	c-1.6,1.7-2.8,3.6-3.6,5.7c-0.9,2.2-1.3,4.6-1.3,6.9c0,2.3,0.4,4.6,1.3,6.8c0.8,2.1,2,4,3.6,5.6c1.7,1.8,3.7,3.2,6,4.3
	c2.4,1.1,5.1,1.6,7.8,1.6c2.6,0,5.2-0.5,7.6-1.4c2.2-0.9,4.2-2.3,5.9-4c1.6-1.7,2.9-3.6,3.7-5.8c0.9-2.3,1.3-4.7,1.3-7.1
	C510.5,15.8,510.1,13.4,509.2,11.1z M502.2,18.3c0,1.4-0.2,2.8-0.7,4.2c-0.5,1.2-1.1,2.3-2,3.2c-0.9,1-2.1,1.8-3.4,2.4
	c-2.7,1.1-5.7,1.1-8.4,0c-1.3-0.6-2.4-1.4-3.3-2.4c-0.9-1-1.5-2.1-2-3.3c-0.5-1.3-0.8-2.7-0.8-4.1c0-1.4,0.2-2.8,0.8-4.2
	c0.5-1.2,1.1-2.3,2-3.3c0.9-1,2.1-1.8,3.4-2.4c1.3-0.6,2.7-0.8,4.2-0.8c2.8,0,5.5,1.1,7.5,3.1c0.9,0.9,1.5,2,2,3.2
	C502,15.4,502.2,16.9,502.2,18.3L502.2,18.3z"/>
<path class="st0" d="M109.6,11.3c-0.9-2.2-2.2-4.3-3.9-6c-1.7-1.6-3.7-2.9-5.9-3.8c-1.9-0.8-3.9-1.2-6-1.4h-2.3l0,0
	c-4.4,0.3-8.6,1.9-12,4.8l-3.1-3.1v11.8h11.8L85,10.4c2.1-1.6,4.8-2.5,7.4-2.6l0,0c2.8,0,5.5,1.2,7.4,3.2c0.9,0.9,1.5,2,2,3.2
	c0.5,1.4,0.8,2.8,0.8,4.3c0,1.4-0.2,2.8-0.7,4.2c-0.5,1.2-1.1,2.3-2,3.2c-0.9,1-2.1,1.8-3.4,2.4c-1.7,0.7-3.5,0.9-5.3,0.7
	c-5.2-0.7-9.1-5.7-13.2-11.3l0,0l-4.8-6.3C68.7,5.7,63.3,0.7,55.5,0.2l-1.2,0h-0.2l-1.2,0.1c-2.2,0.1-4.3,0.6-6.3,1.4
	c-2.3,0.9-4.3,2.4-6,4.2c-1.6,1.7-2.8,3.6-3.7,5.7c-0.9,2.2-1.3,4.6-1.3,6.9c0,2.3,0.5,4.6,1.4,6.8c0.8,2.1,2,4,3.6,5.6
	c1.7,1.8,3.7,3.2,6,4.3c2,0.9,4.2,1.4,6.4,1.5l1.2,0.1h0.2l1.2-0.1C60.2,36.3,64,34,67.3,31l3.4,3.4V22.6H58.9l2.9,2.9
	C59.5,27.6,57,29,54.1,29c-1.4,0-2.8-0.3-4.1-0.9c-1.3-0.5-2.4-1.4-3.3-2.4c-0.9-1-1.5-2.1-2-3.3c-0.5-1.3-0.8-2.7-0.8-4.1
	c0-1.4,0.2-2.8,0.8-4.2c0.5-1.2,1.1-2.3,2-3.3c1-1,2.1-1.8,3.4-2.3c1.3-0.5,2.6-0.8,4-0.8l0,0c6,0,10.3,4.4,14.4,9.8l4.8,6.4
	c4.8,6.4,10.2,12.3,18.5,12.6l0,0h1.9c4.5,0,9.6-2.8,12.3-5.5c1.6-1.7,2.9-3.6,3.7-5.8c0.9-2.3,1.3-4.7,1.3-7.1
	C110.9,16,110.5,13.6,109.6,11.3z"/>
 </g>
</svg>